<?xml version="1.0" encoding="utf-8"?>
<!-- Generator: Adobe Illustrator 16.0.0, SVG Export Plug-In . SVG Version: 6.00 Build 0)  -->
<!DOCTYPE svg PUBLIC "-//W3C//DTD SVG 1.1//EN" "http://www.w3.org/Graphics/SVG/1.1/DTD/svg11.dtd">
<svg version="1.1" id="Layer_1" xmlns="http://www.w3.org/2000/svg" xmlns:xlink="http://www.w3.org/1999/xlink" x="0px" y="0px"
	 width="145px" height="145px" viewBox="0 0 145 145" enable-background="new 0 0 145 145" xml:space="preserve">
<g>
	<text transform="matrix(1 0 0 1 683.1426 83.4531)" fill="#2B4E6A" font-family="'Corbel'" font-size="31">USA</text>
</g>
<g>
	<text transform="matrix(1 0 0 1 666.4355 588.4023)" fill="#2B4E6A" font-family="'Corbel'" font-size="31">Europe</text>
</g>
<g>
	<text transform="matrix(1 0 0 1 666.9395 328.5107)" fill="#2B4E6A" font-family="'Corbel'" font-size="31">Canada</text>
</g>
<g>
	<text transform="matrix(1 0 0 1 951.1211 92.2939)" fill="#2B4E6A" font-family="'Corbel'" font-size="31">UK</text>
</g>
<g>
	<text transform="matrix(1 0 0 1 931.7773 344.3975)" fill="#2B4E6A" font-family="'Corbel'" font-size="31">Asia</text>
</g>
<g>
	<text transform="matrix(1 0 0 1 903.4434 593.9268)" fill="#2B4E6A" font-family="'Corbel'" font-size="31">Australia</text>
</g>
<g>
	<text transform="matrix(1 0 0 1 1403.1426 83.4531)" fill="#2B4E6A" font-family="'Corbel'" font-size="31">USA</text>
</g>
<g>
	<text transform="matrix(1 0 0 1 1386.4355 588.4023)" fill="#2B4E6A" font-family="'Corbel'" font-size="31">Europe</text>
</g>
<g>
	<text transform="matrix(1 0 0 1 1386.9395 328.5107)" fill="#2B4E6A" font-family="'Corbel'" font-size="31">Canada</text>
</g>
<g>
	<text transform="matrix(1 0 0 1 1671.1211 92.2939)" fill="#2B4E6A" font-family="'Corbel'" font-size="31">UK</text>
</g>
<g>
	<text transform="matrix(1 0 0 1 1651.7773 344.3975)" fill="#2B4E6A" font-family="'Corbel'" font-size="31">Asia</text>
</g>
<g>
	<text transform="matrix(1 0 0 1 1623.4434 593.9268)" fill="#2B4E6A" font-family="'Corbel'" font-size="31">Australia</text>
</g>
<g>
	<path fill-rule="evenodd" clip-rule="evenodd" fill="#1281C5" d="M1.187,57.93c0.587,0.676,1.004,1.155,1.454,1.674
		c1.02-1.184,2.042-2.29,2.969-3.467c2.53-3.222,5.617-5.546,9.563-6.888c3.479-1.184,6.815-2.797,10.193-4.271
		c0.492-0.216,0.959-0.646,1.267-1.095c0.972-1.411,1.907-2.85,2.755-4.338c0.251-0.441,0.409-1.182,0.21-1.595
		c-1.059-2.212-0.678-4.066,1.087-5.714c0.346-0.324,0.595-0.753,0.969-1.241c0.99,0.788,1.931,1.536,3.103,2.469
		c-0.079-0.848-0.117-1.411-0.188-1.971c-0.19-1.479-0.194-1.478,1.334-1.482c0.71-0.002,1.423-0.008,2.133-0.02
		c0.089-0.002,0.178-0.059,0.399-0.134c-0.172-0.799-0.312-1.615-0.528-2.406c-0.158-0.569-0.046-0.956,0.401-1.362
		c2.317-2.111,4.623-4.236,6.896-6.394c0.526-0.5,0.961-0.566,1.625-0.287c2.621,1.103,5.242,2.222,7.92,3.166
		c1.002,0.352,2.17,0.239,3.261,0.336c0.053-0.118,0.105-0.233,0.158-0.35c-0.284-0.561-0.634-1.101-0.826-1.692
		c-0.119-0.368-0.166-0.925,0.028-1.206c1.86-2.684,3.763-5.335,5.7-7.963c0.205-0.275,0.701-0.429,1.077-0.467
		c1.348-0.134,2.704-0.219,4.06-0.275c0.875-0.036,1.095-0.463,0.941-1.259c-0.109-0.565-0.142-1.144-0.231-1.887
		C69.359,7.932,69.685,8.009,70,8.112c2.55,0.834,5.107,1.649,7.643,2.52c0.925,0.318,1.795,0.421,2.718,0.022
		c0.532-0.231,1.117-0.33,1.664-0.526c0.832-0.302,1.606-0.605,1.904,0.68c0.047,0.2,0.549,0.376,0.856,0.413
		c0.561,0.067,1.133,0.018,1.955,0.018c-0.595,1.241-1.019,2.277-1.568,3.243c-1.229,2.164-2.508,4.301-3.798,6.431
		c-0.362,0.599-0.36,0.967,0.262,1.433c5.487,4.109,11,8.171,17.087,11.381c0.312,0.164,0.623,0.326,1.024,0.534
		c0.914-1.34,1.807-2.637,2.691-3.94c0.8-1.176,1.522-2.413,2.402-3.524c1.075-1.356,1.515-2.844,1.555-4.554
		c0.061-2.518,0.253-5.034,0.393-7.55c0.015-0.259-0.022-0.542,0.075-0.769c1.018-2.362,2.059-4.718,3.188-7.287
		c0.27,0.47,0.425,0.729,0.569,0.996c1.736,3.242,2.981,6.653,3.516,10.308c0.046,0.318,0.131,0.634,0.2,0.949
		c0.425,1.895,0.427,1.882,2.323,2.18c0.296,0.046,0.604,0.223,0.845,0.415c2.621,2.107,2.608,2.113,2.882,5.451
		c0.107,1.322,0.185,2.651,0.431,3.949c0.132,0.7,0.65,1.32,0.896,2.012c0.308,0.86,0.812,1.792,0.71,2.629
		c-0.37,3.084,0.727,5.256,3.323,6.96c1.824,1.198,3.4,2.779,5.048,4.234c0.358,0.318,0.666,0.802,0.79,1.263
		c0.678,2.528,1.313,5.068,1.914,7.616c0.166,0.707,0.48,1.081,1.205,1.297c2.979,0.891,2.21,0.211,2.776,3.235
		c0.156,0.828,0.479,1.68,0.936,2.386c1.297,2.006,2.722,3.933,4.054,5.918c0.275,0.411,0.496,0.933,0.53,1.419
		c0.318,4.609,0.607,9.222,0.856,13.834c0.03,0.551-0.172,1.134-0.354,1.674c-1.64,4.86-4.807,8.805-7.675,12.948
		c-3.402,4.916-6.684,9.924-8.833,15.557c-0.268,0.7-0.664,1.079-1.415,1.263c-2.04,0.5-4.091,0.994-6.07,1.681
		c-1.167,0.404-2.216,1.159-3.305,1.783c-0.617,0.354-1.174,0.821-1.813,1.115c-0.3,0.138-0.832,0.121-1.089-0.063
		c-0.998-0.714-1.941-1.506-2.872-2.305c-0.476-0.407-0.921-0.484-1.502-0.233c-1.215,0.53-2.433,1.069-3.69,1.472
		c-0.483,0.156-1.163,0.115-1.61-0.115c-1.812-0.929-3.609-1.896-5.323-2.991c-0.822-0.526-1.393-1.434-2.17-2.051
		c-1.896-1.506-2.787-3.471-2.896-5.844c-0.01-0.191-0.041-0.386-0.081-0.576c-0.396-1.842,0.045-1.644-1.943-1.759
		c-1.317-0.077-1.327-0.111-1.246-1.441c0.044-0.678,0.078-1.354,0.104-2.032c0.002-0.083-0.064-0.17-0.14-0.358
		c-1.129,0.476-2.24,0.945-3.578,1.508c0.63-2.303,1.2-4.394,1.848-6.766c-2.473,1.985-4.722,3.789-7.048,5.654
		c-0.523-0.755-0.967-1.421-1.438-2.066c-1.966-2.686-3.921-5.376-5.925-8.033c-0.285-0.378-0.769-0.696-1.224-0.84
		c-1.785-0.566-3.575-1.162-5.406-1.528c-1.008-0.2-2.105,0.021-3.16,0.073c-5.346,0.275-10.27,2.238-15.251,3.908
		c-1.662,0.559-3.208,1.54-4.698,2.5c-0.629,0.406-1.103,1.2-1.421,1.919c-0.876,1.969-2.338,2.817-4.461,3.086
		c-2.751,0.349-5.465,0.998-8.186,1.571c-0.546,0.115-1.107,0.376-1.554,0.71c-1.658,1.239-3.247,2.568-4.917,3.787
		c-0.382,0.277-1.018,0.427-1.479,0.338c-2.382-0.451-4.738-1.026-7.115-1.5c-0.771-0.151-1.046-0.457-1.079-1.272
		c-0.046-1.154,0.146-2.104,1.184-2.739c0.585-0.358,0.478-0.866,0.407-1.442c-0.524-4.217-2.765-7.753-4.471-11.505
		c-1.714-3.773-4.339-6.955-6.608-10.367c-1.229-1.848-1.301-1.838,0.077-3.553c0.502-0.625,0.516-1.135,0.152-1.825
		c-0.98-1.858-1.923-3.737-2.815-5.638c-0.265-0.564-0.417-1.222-0.445-1.846c-0.102-2.194-0.127-4.394-0.176-6.59
		C1.137,58.705,1.163,58.454,1.187,57.93z"/>
	<path fill-rule="evenodd" clip-rule="evenodd" fill="#1281C5" d="M109.303,126.496c1.215,0.613,2.366,1.277,3.583,1.779
		c0.682,0.281,1.474,0.411,2.216,0.409c1.094-0.002,2.188-0.177,3.279-0.294c0.568-0.061,0.848,0.124,0.813,0.743
		c-0.127,2.184,0.006,4.463-1.603,6.224c-0.966,1.055-2.069,2.008-3.219,2.862c-0.662,0.491-2.597-0.366-2.949-1.158
		c-0.769-1.73-1.651-3.39-1.603-5.414c0.024-0.905-0.521-1.854-0.923-2.73C108.493,128.036,108.593,127.308,109.303,126.496z"/>
</g>
</svg>
