<?xml version="1.0" encoding="utf-8"?>
<!-- Generator: Adobe Illustrator 16.0.0, SVG Export Plug-In . SVG Version: 6.00 Build 0)  -->
<!DOCTYPE svg PUBLIC "-//W3C//DTD SVG 1.1//EN" "http://www.w3.org/Graphics/SVG/1.1/DTD/svg11.dtd">
<svg version="1.1" id="Layer_1" xmlns="http://www.w3.org/2000/svg" xmlns:xlink="http://www.w3.org/1999/xlink" x="0px" y="0px"
	 width="145px" height="145px" viewBox="0 0 145 145" enable-background="new 0 0 145 145" xml:space="preserve">
<g>
	<text transform="matrix(1 0 0 1 683.1426 83.4531)" fill="#2B4E6A" font-family="'Corbel'" font-size="31">USA</text>
</g>
<g>
	<text transform="matrix(1 0 0 1 666.4355 588.4023)" fill="#2B4E6A" font-family="'Corbel'" font-size="31">Europe</text>
</g>
<g>
	<text transform="matrix(1 0 0 1 666.9395 328.5107)" fill="#2B4E6A" font-family="'Corbel'" font-size="31">Canada</text>
</g>
<g>
	<text transform="matrix(1 0 0 1 951.1211 92.2939)" fill="#2B4E6A" font-family="'Corbel'" font-size="31">UK</text>
</g>
<g>
	<text transform="matrix(1 0 0 1 931.7773 344.3975)" fill="#2B4E6A" font-family="'Corbel'" font-size="31">Asia</text>
</g>
<g>
	<text transform="matrix(1 0 0 1 903.4434 593.9268)" fill="#2B4E6A" font-family="'Corbel'" font-size="31">Australia</text>
</g>
<g>
	<g>
		<path fill="#1281C5" d="M1001.101,519.745c-0.26,0-0.757-0.044-1.164-0.336c-1.037-0.742-2.011-1.565-2.841-2.278
			c-0.088-0.075-0.166-0.122-0.203-0.122c-0.021,0-0.079,0.005-0.198,0.057l-0.136,0.06c-1.132,0.494-2.303,1.006-3.517,1.395
			c-0.705,0.228-1.672,0.158-2.317-0.175c-1.567-0.804-3.415-1.781-5.217-2.933c-0.554-0.354-0.973-0.81-1.379-1.25
			c-0.272-0.295-0.529-0.574-0.799-0.788c-1.982-1.574-3.05-3.72-3.172-6.376c-0.007-0.127-0.029-0.262-0.058-0.395
			c-0.068-0.32-0.113-0.581-0.149-0.793c-0.004-0.025-0.008-0.049-0.012-0.072c-0.103-0.006-0.219-0.012-0.329-0.018l-0.464-0.024
			c-0.759-0.044-1.356-0.079-1.793-0.57c-0.436-0.49-0.399-1.073-0.351-1.879c0.017-0.259,0.032-0.517,0.046-0.773l-2.146,0.904
			c-0.352,0.149-0.759,0.083-1.047-0.17c-0.288-0.252-0.406-0.646-0.306-1.016l0.972-3.559l-4.398,3.53
			c-0.217,0.172-0.496,0.253-0.77,0.209c-0.274-0.039-0.52-0.191-0.678-0.419l-0.469-0.68c-0.312-0.454-0.603-0.879-0.906-1.295
			l-0.871-1.19c-1.602-2.191-3.202-4.382-4.837-6.55c-0.139-0.185-0.427-0.377-0.684-0.458l-0.522-0.167
			c-1.501-0.479-3.055-0.974-4.59-1.281c-0.496-0.099-1.214-0.048-1.884,0.016c-0.308,0.029-0.615,0.058-0.919,0.073
			c-4.264,0.22-8.369,1.633-12.34,3.001c-0.703,0.242-1.405,0.483-2.109,0.72c-1.528,0.514-3.006,1.465-4.31,2.305
			c-0.33,0.214-0.694,0.729-0.997,1.415c-0.94,2.112-2.559,3.245-5.094,3.566c-2.076,0.263-4.185,0.719-6.225,1.16l-1.594,0.342
			c-0.378,0.08-0.782,0.266-1.107,0.509c-0.719,0.536-1.424,1.092-2.129,1.646c-0.867,0.683-1.734,1.364-2.624,2.014
			c-0.588,0.425-1.513,0.634-2.207,0.5c-1.271-0.24-2.537-0.518-3.804-0.796c-1.021-0.224-2.042-0.448-3.067-0.652
			c-1.209-0.237-1.796-0.927-1.845-2.169c-0.047-1.148,0.093-2.583,1.589-3.517c-0.003-0.089-0.021-0.228-0.033-0.327l-0.014-0.109
			c-0.364-2.93-1.637-5.498-2.984-8.217c-0.426-0.86-0.852-1.721-1.248-2.593c-1.15-2.531-2.794-4.854-4.383-7.1
			c-0.648-0.915-1.296-1.831-1.917-2.765l-0.105-0.158c-1.345-2.02-1.319-2.519,0.233-4.45c0.208-0.259,0.226-0.319,0.041-0.668
			c-1.006-1.909-1.901-3.701-2.737-5.481c-0.304-0.646-0.489-1.414-0.523-2.161c-0.075-1.639-0.108-3.282-0.141-4.924l-0.03-1.458
			c-0.004-0.178,0.005-0.357,0.021-0.617l0.023-0.441c0.019-0.409,0.284-0.765,0.671-0.898c0.384-0.137,0.814-0.021,1.083,0.289
			l0.649,0.747c0.054-0.061,0.106-0.121,0.16-0.182c0.678-0.77,1.317-1.496,1.917-2.259c2.652-3.378,5.822-5.659,9.692-6.975
			c2.496-0.85,4.977-1.96,7.375-3.033c0.794-0.355,1.587-0.711,2.384-1.059c0.272-0.119,0.586-0.396,0.797-0.705
			c1.063-1.544,1.894-2.851,2.614-4.115c0.122-0.215,0.179-0.545,0.154-0.653c-1.189-2.479-0.763-4.725,1.284-6.636
			c0.15-0.141,0.304-0.354,0.479-0.603c0.106-0.15,0.22-0.308,0.346-0.473c0.163-0.212,0.405-0.351,0.671-0.383
			c0.27-0.033,0.534,0.043,0.745,0.21l1.139,0.906c-0.069-0.654-0.051-1.128,0.318-1.549c0.456-0.521,1.074-0.521,2.011-0.524
			c0.42-0.001,0.838-0.004,1.255-0.009c-0.082-0.401-0.169-0.803-0.277-1.198c-0.253-0.912-0.031-1.672,0.679-2.318
			c2.604-2.372,4.714-4.328,6.639-6.155c0.79-0.75,1.604-0.912,2.645-0.474l0.569,0.24c2.289,0.964,4.655,1.961,7.018,2.793
			c0.419,0.147,0.921,0.188,1.459,0.208c-0.089-0.191-0.171-0.391-0.24-0.602c-0.067-0.208-0.374-1.275,0.155-2.042
			c1.723-2.485,3.579-5.078,5.519-7.709c0.503-0.677,1.461-0.823,1.742-0.853c1.211-0.12,2.503-0.208,3.951-0.269
			c-0.002-0.009-0.004-0.018-0.005-0.027c-0.075-0.389-0.117-0.783-0.163-1.23c-0.021-0.206-0.043-0.425-0.071-0.66
			c-0.039-0.331,0.088-0.659,0.341-0.877s0.597-0.296,0.918-0.206l0.374,0.101c0.266,0.07,0.493,0.131,0.716,0.204l1.829,0.596
			c1.857,0.604,3.714,1.207,5.56,1.84c0.81,0.279,1.338,0.292,1.902,0.05c0.358-0.155,0.711-0.253,1.052-0.347
			c0.206-0.057,0.412-0.112,0.612-0.185c0.423-0.153,0.863-0.313,1.324-0.313c0.485,0,1.31,0.18,1.713,1.301
			c0.03,0.007,0.059,0.013,0.082,0.016c0.325,0.038,0.659,0.026,1.057,0.021c0.218-0.005,0.453-0.01,0.713-0.01
			c0.344,0,0.663,0.177,0.847,0.468c0.183,0.29,0.203,0.655,0.055,0.965c-0.186,0.388-0.354,0.754-0.515,1.104
			c-0.336,0.732-0.653,1.423-1.031,2.087c-1.243,2.188-2.557,4.377-3.678,6.228c-0.01,0.018-0.02,0.032-0.027,0.047
			c0.007,0.006,0.015,0.012,0.023,0.019c5.615,4.204,10.722,7.927,16.355,10.897l0.197,0.104l0.438-0.641
			c0.559-0.814,1.109-1.619,1.657-2.427c0.248-0.365,0.488-0.737,0.729-1.108c0.508-0.782,1.032-1.593,1.633-2.352
			c0.84-1.06,1.248-2.267,1.284-3.797c0.043-1.755,0.151-3.528,0.257-5.243c0.043-0.691,0.085-1.383,0.124-2.074l0.002-0.155
			c0-0.244,0.001-0.578,0.149-0.925c0.835-1.938,1.686-3.871,2.591-5.929l0.489-1.111c0.151-0.346,0.485-0.576,0.862-0.597
			c0.377-0.026,0.732,0.174,0.92,0.502l0.229,0.395c0.137,0.235,0.237,0.411,0.334,0.59c1.851,3.455,2.995,6.816,3.501,10.276
			c0.028,0.188,0.073,0.377,0.117,0.565l0.064,0.282c0.11,0.493,0.227,1.011,0.309,1.128c0.085,0.04,0.588,0.118,1.074,0.194
			c0.576,0.091,1.032,0.383,1.32,0.613c2.721,2.187,2.868,2.463,3.149,5.91l0.051,0.637c0.084,1.085,0.164,2.11,0.355,3.118
			c0.045,0.238,0.202,0.527,0.368,0.833c0.154,0.284,0.329,0.605,0.455,0.961c0.063,0.175,0.136,0.355,0.209,0.538
			c0.297,0.737,0.633,1.574,0.527,2.453c-0.309,2.564,0.518,4.287,2.763,5.761c1.406,0.924,2.657,2.063,3.866,3.165
			c0.372,0.338,0.743,0.676,1.118,1.008c0.5,0.443,0.897,1.082,1.065,1.709c0.63,2.348,1.254,4.83,1.855,7.379
			c0.084,0.36,0.142,0.424,0.475,0.523c0.396,0.118,0.722,0.207,0.99,0.28c1.601,0.438,1.965,0.688,2.188,2.347
			c0.043,0.319,0.098,0.73,0.198,1.268c0.132,0.698,0.401,1.39,0.761,1.945c0.711,1.1,1.481,2.201,2.227,3.267
			c0.563,0.807,1.128,1.612,1.675,2.43c0.229,0.341,0.621,1.035,0.679,1.855c0.328,4.754,0.599,9.126,0.827,13.366
			c0.04,0.709-0.183,1.367-0.379,1.948c-1.376,4.08-3.798,7.49-6.139,10.787c-0.472,0.664-0.943,1.328-1.406,1.997
			c-3.117,4.505-6.335,9.358-8.411,14.799c-0.382,1-1.036,1.582-2.062,1.834l-0.232,0.057c-1.841,0.45-3.745,0.917-5.536,1.538
			c-0.721,0.249-1.415,0.674-2.15,1.123c-0.289,0.177-0.578,0.354-0.869,0.521c-0.218,0.124-0.427,0.267-0.637,0.407
			c-0.368,0.249-0.75,0.506-1.193,0.71C1001.664,519.714,1001.327,519.745,1001.101,519.745z M996.893,515.009
			c0.537,0,1.029,0.197,1.505,0.604c0.8,0.687,1.732,1.477,2.703,2.171v-0.038c0.042,0,0.071-0.005,0.079-0.008
			c0.268-0.124,0.566-0.326,0.883-0.539c0.249-0.168,0.499-0.335,0.759-0.484c0.276-0.158,0.549-0.325,0.821-0.491
			c0.793-0.485,1.614-0.986,2.539-1.308c1.879-0.651,3.829-1.129,5.715-1.59l0.231-0.058c0.385-0.094,0.522-0.218,0.669-0.604
			c2.156-5.649,5.448-10.619,8.636-15.225c0.468-0.676,0.943-1.346,1.42-2.016c2.361-3.326,4.592-6.468,5.861-10.229
			c0.158-0.471,0.309-0.916,0.291-1.241c-0.229-4.231-0.499-8.593-0.826-13.336c-0.018-0.252-0.149-0.59-0.345-0.881
			c-0.54-0.806-1.097-1.602-1.653-2.396c-0.755-1.08-1.536-2.196-2.268-3.328c-0.496-0.77-0.867-1.714-1.045-2.661
			c-0.109-0.581-0.169-1.025-0.216-1.371c-0.023-0.175-0.049-0.367-0.072-0.491c-0.149-0.052-0.407-0.123-0.66-0.191
			c-0.281-0.077-0.621-0.17-1.035-0.294c-1.016-0.304-1.604-0.933-1.85-1.981c-0.597-2.527-1.216-4.99-1.84-7.319
			c-0.066-0.249-0.256-0.549-0.459-0.729c-0.382-0.337-0.761-0.682-1.14-1.026c-1.205-1.098-2.343-2.135-3.617-2.972
			c-2.852-1.872-4.046-4.381-3.651-7.672c0.045-0.37-0.18-0.928-0.396-1.468c-0.083-0.207-0.165-0.412-0.237-0.613
			c-0.074-0.21-0.197-0.437-0.328-0.676c-0.222-0.409-0.474-0.872-0.576-1.418c-0.212-1.113-0.3-2.242-0.385-3.335l-0.046-0.579
			c-0.229-2.808-0.229-2.808-2.411-4.562c-0.155-0.124-0.294-0.184-0.343-0.191c-2.229-0.35-2.568-0.672-3.063-2.873l-0.06-0.26
			c-0.057-0.243-0.112-0.486-0.147-0.73c-0.432-2.952-1.367-5.836-2.854-8.791c-0.781,1.776-1.524,3.469-2.256,5.165
			c0.009,0.005,0.014,0.071,0.014,0.138c0,0.089-0.001,0.178-0.006,0.264c-0.038,0.696-0.081,1.392-0.124,2.086
			c-0.104,1.697-0.212,3.451-0.253,5.169c-0.047,1.96-0.608,3.593-1.716,4.991c-0.542,0.684-1.019,1.419-1.522,2.197
			c-0.248,0.383-0.496,0.767-0.753,1.145c-0.549,0.809-1.102,1.615-1.661,2.433l-0.938,1.371c-0.285,0.419-0.836,0.561-1.288,0.323
			l-0.992-0.518c-5.764-3.04-10.938-6.811-16.622-11.066c-0.978-0.733-1.148-1.642-0.508-2.701c1.114-1.84,2.419-4.013,3.65-6.182
			c0.287-0.504,0.537-1.032,0.811-1.625c-0.146-0.007-0.29-0.018-0.433-0.034c-0.148-0.018-1.458-0.2-1.682-1.165
			c-0.011-0.043-0.021-0.079-0.029-0.109c-0.138,0.037-0.32,0.104-0.456,0.153c-0.288,0.104-0.543,0.175-0.798,0.245
			c-0.287,0.079-0.558,0.153-0.789,0.254c-1.02,0.441-2.045,0.453-3.346,0.006c-1.835-0.629-3.682-1.229-5.528-1.83l-1.404-0.457
			c0.013,0.084,0.026,0.167,0.042,0.249c0.052,0.267,0.209,1.078-0.302,1.724c-0.335,0.423-0.854,0.652-1.546,0.681
			c-1.421,0.06-2.684,0.146-3.861,0.262c-0.188,0.02-0.352,0.084-0.392,0.113c-1.851,2.525-3.677,5.076-5.373,7.521
			c-0.005,0.082,0.01,0.234,0.051,0.36c0.102,0.313,0.28,0.64,0.47,0.985c0.092,0.168,0.183,0.336,0.269,0.505
			c0.136,0.27,0.144,0.585,0.02,0.86l-0.152,0.338c-0.174,0.389-0.561,0.632-1.001,0.587c-0.308-0.027-0.623-0.036-0.938-0.045
			c-0.806-0.022-1.639-0.046-2.452-0.332c-2.419-0.853-4.814-1.861-7.13-2.837l-0.568-0.239c-0.176-0.074-0.252-0.08-0.271-0.08
			c-0.006,0.001-0.071,0.019-0.221,0.16c-1.935,1.837-4.054,3.802-6.669,6.185c-0.101,0.091-0.125,0.137-0.127,0.143
			c0.001,0.001-0.003,0.048,0.03,0.165c0.152,0.558,0.267,1.123,0.381,1.687l0.143,0.693c0.106,0.496-0.175,0.994-0.656,1.157
			l-0.147,0.055c-0.128,0.052-0.303,0.121-0.536,0.127c-0.695,0.012-1.388,0.018-2.078,0.02c-0.111,0-0.228,0.001-0.336,0.002
			c0.012,0.094,0.024,0.193,0.036,0.288c0.05,0.392,0.083,0.771,0.123,1.236l0.064,0.713c0.037,0.399-0.168,0.782-0.521,0.973
			c-0.353,0.188-0.785,0.152-1.099-0.098l-2.179-1.734c-0.134,0.172-0.278,0.341-0.444,0.497c-1.393,1.3-1.648,2.642-0.83,4.352
			c0.366,0.764,0.135,1.813-0.236,2.465c-0.75,1.316-1.609,2.669-2.704,4.259c-0.424,0.619-1.022,1.132-1.643,1.404
			c-0.794,0.347-1.582,0.699-2.37,1.052c-2.439,1.092-4.963,2.222-7.547,3.101c-3.492,1.188-6.358,3.254-8.765,6.317
			c-0.635,0.808-1.322,1.589-1.988,2.345c-0.3,0.341-0.603,0.686-0.905,1.036c-0.189,0.221-0.466,0.348-0.756,0.348
			c-0.001,0-0.001,0-0.002,0c-0.145,0-0.285-0.031-0.414-0.09c0.032,1.594,0.064,3.188,0.138,4.778
			c0.022,0.49,0.142,0.988,0.336,1.402c0.822,1.751,1.704,3.517,2.696,5.397c0.552,1.046,0.472,1.953-0.251,2.854
			c-0.288,0.358-0.724,0.898-0.763,1.063c0.026,0.111,0.335,0.576,0.635,1.025l0.106,0.159c0.609,0.917,1.247,1.817,1.884,2.717
			c1.643,2.322,3.342,4.724,4.57,7.427c0.388,0.853,0.804,1.692,1.221,2.532c1.361,2.749,2.77,5.592,3.176,8.86l0.013,0.101
			c0.072,0.562,0.205,1.606-0.875,2.268c-0.466,0.285-0.71,0.648-0.666,1.75c0.005,0.129,0.018,0.204,0.026,0.243
			c0.001,0,0.001,0,0.001,0c0.024,0,0.092,0.021,0.208,0.044c1.04,0.208,2.073,0.435,3.107,0.661
			c1.247,0.273,2.495,0.547,3.751,0.785c0.278,0,0.547-0.076,0.654-0.153c0.868-0.634,1.716-1.301,2.563-1.969
			c0.719-0.564,1.437-1.13,2.169-1.677c0.559-0.417,1.23-0.724,1.893-0.863l1.583-0.34c2.081-0.45,4.233-0.916,6.396-1.189
			c1.846-0.234,2.865-0.927,3.517-2.393c0.477-1.076,1.063-1.846,1.742-2.285c1.334-0.858,2.991-1.927,4.758-2.521
			c0.699-0.234,1.396-0.475,2.094-0.715c4.102-1.412,8.344-2.873,12.89-3.107c0.276-0.014,0.555-0.04,0.833-0.066
			c0.868-0.08,1.753-0.126,2.463,0.015c1.646,0.329,3.252,0.842,4.807,1.337l0.518,0.165c0.658,0.208,1.285,0.642,1.678,1.161
			c1.64,2.176,3.247,4.374,4.854,6.573l0.87,1.19c0.269,0.367,0.526,0.739,0.796,1.132l5.961-4.784
			c0.337-0.271,0.811-0.295,1.175-0.056c0.362,0.237,0.53,0.682,0.416,1.1l-1.242,4.546l1.56-0.657c0.248-0.104,0.526-0.104,0.774,0
			c0.247,0.104,0.443,0.303,0.542,0.552l0.049,0.107c0.062,0.128,0.164,0.343,0.157,0.633c-0.026,0.678-0.061,1.339-0.104,2.002
			c-0.006,0.095-0.013,0.205-0.018,0.31c0.102,0.007,0.204,0.013,0.281,0.018l0.446,0.023c1.374,0.067,1.959,0.245,2.215,1.752
			c0.031,0.189,0.071,0.422,0.133,0.709c0.051,0.237,0.087,0.478,0.1,0.715c0.096,2.089,0.887,3.692,2.418,4.908
			c0.391,0.311,0.714,0.661,1.025,0.999c0.335,0.363,0.65,0.706,0.985,0.921c1.73,1.105,3.526,2.056,5.054,2.839
			c0.128,0.065,0.56,0.123,0.792,0.049c1.117-0.357,2.241-0.849,3.327-1.323l0.14-0.061
			C996.245,515.081,996.569,515.009,996.893,515.009z"/>
	</g>
	<g>
		<path fill="#1281C5" d="M1001.033,537.658c-1.117,0-2.775-0.809-3.239-1.851l-0.26-0.577c-0.698-1.536-1.42-3.124-1.373-5.078
			c0.014-0.491-0.295-1.136-0.594-1.759l-0.205-0.434c-0.565-1.23-0.387-2.347,0.546-3.412c0.303-0.344,0.798-0.438,1.204-0.234
			c0.354,0.18,0.705,0.363,1.053,0.546c0.799,0.42,1.555,0.817,2.335,1.139c0.498,0.206,1.116,0.319,1.74,0.319
			c0.751-0.001,1.494-0.091,2.282-0.186l0.791-0.092c0.807-0.083,1.247,0.206,1.478,0.45c0.305,0.322,0.444,0.766,0.413,1.316
			c-0.016,0.272-0.027,0.544-0.039,0.816c-0.08,1.904-0.172,4.063-1.768,5.809c-0.907,0.99-1.999,1.962-3.247,2.89
			C1001.85,537.545,1001.474,537.658,1001.033,537.658z M997.046,526.531c-0.023,0.189,0.031,0.372,0.133,0.593l0.191,0.405
			c0.383,0.798,0.816,1.702,0.791,2.674c-0.036,1.493,0.562,2.808,1.193,4.2l0.268,0.592c0.135,0.221,0.937,0.663,1.411,0.663h0.002
			c1.113-0.834,2.084-1.7,2.887-2.576c1.104-1.208,1.173-2.829,1.245-4.544c0.007-0.156,0.014-0.312,0.021-0.467l-0.426,0.046
			c-0.811,0.098-1.649,0.198-2.503,0.2c-0.911,0-1.776-0.162-2.521-0.47c-0.866-0.357-1.698-0.795-2.503-1.218
			C997.172,526.597,997.109,526.564,997.046,526.531z"/>
	</g>
</g>
<g>
	<text transform="matrix(1 0 0 1 1403.1426 83.4531)" fill="#2B4E6A" font-family="'Corbel'" font-size="31">USA</text>
</g>
<g>
	<text transform="matrix(1 0 0 1 1386.4355 588.4023)" fill="#2B4E6A" font-family="'Corbel'" font-size="31">Europe</text>
</g>
<g>
	<text transform="matrix(1 0 0 1 1386.9395 328.5107)" fill="#2B4E6A" font-family="'Corbel'" font-size="31">Canada</text>
</g>
<g>
	<text transform="matrix(1 0 0 1 1671.1211 92.2939)" fill="#2B4E6A" font-family="'Corbel'" font-size="31">UK</text>
</g>
<g>
	<text transform="matrix(1 0 0 1 1651.7773 344.3975)" fill="#2B4E6A" font-family="'Corbel'" font-size="31">Asia</text>
</g>
<g>
	<text transform="matrix(1 0 0 1 1623.4434 593.9268)" fill="#2B4E6A" font-family="'Corbel'" font-size="31">Australia</text>
</g>
<g>
	<path fill-rule="evenodd" clip-rule="evenodd" fill="none" stroke="#1281C5" stroke-width="2" stroke-miterlimit="10" d="
		M1612.333,459.042c0.566,0.652,0.969,1.115,1.402,1.615c0.984-1.143,1.971-2.209,2.865-3.346c2.441-3.109,5.42-5.352,9.229-6.646
		c3.357-1.143,6.576-2.699,9.836-4.121c0.475-0.209,0.926-0.623,1.223-1.057c0.938-1.361,1.84-2.75,2.658-4.186
		c0.242-0.426,0.395-1.141,0.203-1.539c-1.021-2.135-0.654-3.924,1.049-5.514c0.334-0.313,0.574-0.727,0.936-1.197
		c0.955,0.76,1.863,1.482,2.994,2.383c-0.076-0.818-0.113-1.361-0.182-1.902c-0.184-1.428-0.188-1.426,1.287-1.43
		c0.686-0.002,1.373-0.008,2.059-0.02c0.086-0.002,0.172-0.057,0.385-0.129c-0.166-0.771-0.301-1.559-0.51-2.322
		c-0.152-0.549-0.045-0.922,0.387-1.314c2.236-2.037,4.461-4.088,6.654-6.17c0.508-0.482,0.928-0.547,1.568-0.277
		c2.529,1.064,5.059,2.145,7.643,3.055c0.967,0.34,2.094,0.23,3.146,0.324c0.051-0.113,0.102-0.225,0.152-0.338
		c-0.273-0.541-0.611-1.063-0.797-1.633c-0.115-0.355-0.16-0.893,0.027-1.164c1.795-2.59,3.631-5.148,5.5-7.684
		c0.197-0.266,0.676-0.414,1.039-0.451c1.301-0.129,2.609-0.211,3.918-0.266c0.844-0.035,1.057-0.447,0.908-1.215
		c-0.105-0.545-0.137-1.104-0.223-1.82c0.426,0.117,0.74,0.191,1.045,0.291c2.461,0.805,4.928,1.592,7.375,2.432
		c0.893,0.307,1.732,0.406,2.623,0.021c0.514-0.223,1.078-0.318,1.605-0.508c0.803-0.291,1.551-0.584,1.838,0.656
		c0.045,0.193,0.529,0.363,0.826,0.398c0.541,0.064,1.094,0.018,1.887,0.018c-0.574,1.197-0.982,2.197-1.514,3.129
		c-1.186,2.088-2.42,4.15-3.664,6.205c-0.35,0.578-0.348,0.934,0.252,1.383c5.295,3.965,10.615,7.885,16.488,10.982
		c0.301,0.158,0.602,0.314,0.988,0.516c0.883-1.293,1.744-2.545,2.598-3.803c0.771-1.135,1.469-2.328,2.318-3.4
		c1.037-1.309,1.461-2.744,1.5-4.395c0.059-2.43,0.244-4.857,0.379-7.285c0.014-0.25-0.021-0.523,0.072-0.742
		c0.982-2.279,1.986-4.553,3.076-7.031c0.26,0.453,0.41,0.703,0.549,0.961c1.676,3.129,2.877,6.42,3.393,9.947
		c0.045,0.307,0.127,0.611,0.193,0.916c0.41,1.828,0.412,1.816,2.242,2.104c0.285,0.045,0.582,0.215,0.814,0.4
		c2.529,2.033,2.518,2.039,2.781,5.26c0.104,1.275,0.178,2.559,0.416,3.811c0.127,0.676,0.627,1.273,0.863,1.941
		c0.297,0.83,0.783,1.729,0.686,2.537c-0.357,2.977,0.701,5.072,3.207,6.717c1.76,1.156,3.281,2.682,4.871,4.086
		c0.346,0.307,0.643,0.773,0.762,1.219c0.654,2.439,1.268,4.891,1.848,7.35c0.16,0.682,0.463,1.043,1.162,1.252
		c2.875,0.859,2.133,0.203,2.68,3.121c0.15,0.799,0.463,1.621,0.902,2.303c1.252,1.936,2.627,3.795,3.912,5.711
		c0.266,0.396,0.479,0.9,0.512,1.369c0.307,4.447,0.586,8.898,0.826,13.35c0.029,0.531-0.166,1.094-0.342,1.615
		c-1.582,4.689-4.639,8.496-7.406,12.494c-3.283,4.744-6.449,9.576-8.523,15.012c-0.258,0.676-0.641,1.041-1.365,1.219
		c-1.969,0.482-3.947,0.959-5.857,1.621c-1.127,0.391-2.139,1.119-3.189,1.721c-0.596,0.342-1.133,0.793-1.75,1.076
		c-0.289,0.133-0.803,0.117-1.051-0.061c-0.963-0.689-1.873-1.453-2.771-2.225c-0.459-0.393-0.889-0.467-1.449-0.225
		c-1.172,0.512-2.348,1.031-3.561,1.42c-0.467,0.15-1.123,0.111-1.555-0.111c-1.748-0.896-3.482-1.83-5.137-2.887
		c-0.793-0.508-1.344-1.383-2.094-1.979c-1.83-1.453-2.689-3.35-2.795-5.639c-0.01-0.186-0.039-0.373-0.078-0.557
		c-0.383-1.777,0.043-1.586-1.875-1.697c-1.271-0.074-1.281-0.107-1.203-1.391c0.043-0.654,0.076-1.307,0.102-1.961
		c0.002-0.08-0.063-0.164-0.135-0.346c-1.09,0.459-2.162,0.912-3.453,1.455c0.607-2.223,1.158-4.24,1.783-6.529
		c-2.387,1.916-4.557,3.656-6.801,5.457c-0.506-0.729-0.934-1.371-1.389-1.994c-1.896-2.592-3.783-5.188-5.717-7.752
		c-0.275-0.365-0.742-0.672-1.182-0.811c-1.723-0.547-3.449-1.121-5.217-1.475c-0.973-0.193-2.031,0.02-3.049,0.07
		c-5.158,0.266-9.91,2.16-14.717,3.771c-1.604,0.539-3.096,1.486-4.533,2.412c-0.607,0.393-1.064,1.158-1.371,1.852
		c-0.846,1.9-2.256,2.719-4.305,2.979c-2.654,0.336-5.273,0.963-7.898,1.516c-0.527,0.111-1.068,0.363-1.5,0.686
		c-1.6,1.195-3.133,2.479-4.744,3.654c-0.369,0.268-0.982,0.412-1.428,0.326c-2.299-0.436-4.572-0.99-6.865-1.447
		c-0.744-0.146-1.01-0.441-1.041-1.229c-0.045-1.113,0.141-2.029,1.143-2.643c0.564-0.346,0.461-0.836,0.393-1.393
		c-0.506-4.068-2.668-7.48-4.314-11.102c-1.654-3.641-4.188-6.711-6.377-10.004c-1.186-1.783-1.256-1.773,0.074-3.428
		c0.484-0.604,0.498-1.096,0.146-1.762c-0.945-1.793-1.855-3.605-2.717-5.439c-0.256-0.545-0.402-1.18-0.43-1.781
		c-0.098-2.117-0.123-4.24-0.17-6.359C1612.284,459.79,1612.31,459.548,1612.333,459.042z"/>
	<path fill-rule="evenodd" clip-rule="evenodd" fill="none" stroke="#1281C5" stroke-width="2" stroke-miterlimit="10" d="
		M1716.661,525.206c1.172,0.592,2.283,1.232,3.457,1.717c0.658,0.271,1.422,0.396,2.139,0.395c1.055-0.002,2.111-0.17,3.164-0.283
		c0.549-0.059,0.818,0.119,0.785,0.717c-0.123,2.107,0.006,4.307-1.547,6.006c-0.932,1.018-1.996,1.938-3.105,2.762
		c-0.639,0.475-2.506-0.354-2.846-1.117c-0.742-1.67-1.594-3.271-1.547-5.225c0.023-0.873-0.502-1.789-0.891-2.635
		C1715.88,526.692,1715.976,525.989,1716.661,525.206z"/>
</g>
<g>
	<path fill="#1281C5" d="M58.009,124.536c-0.898,0.779-1.64-0.135-2.003,0.491c-0.451,0.777,1.39,1.964,1.021,3.557
		c-0.368,1.595,0.204,3.6,1.144,2.661c0.942-0.939,1.393-0.489,1.924-1.188c0.531-0.693,0.083-3.271,0.451-4.497
		C60.912,124.334,58.908,123.76,58.009,124.536z"/>
	<g>
		<path fill="#1281C5" d="M23.857,94.038c0.355,0.044,0.734-0.2,0.734-0.2s-0.067-0.046-0.645-0.089
			c-0.579-0.046-0.625-0.735-1.136-0.491c-0.509,0.243-0.866,0.313-1.507,0.247c-0.009,0.194-0.12,0.456-0.154,0.716
			c0.164-0.042,0.29-0.069,0.348-0.071c0.357-0.022,1.113-0.157,1.358-0.379C23.1,93.547,23.5,93.992,23.857,94.038z"/>
		<path fill="#1281C5" d="M24.452,95.207c0.2-0.073,0.249-0.305,0.261-0.446c-0.104-0.049-0.214-0.087-0.3-0.079
			c-0.245,0.022-1.735,0.135-1.735,0.135s-0.446,0.289-0.669,0.268c-0.186-0.02-0.001-0.318-0.603-0.166
			c0.302,0.376,0.341,0.564,0.955,0.736c0.686,0.194-0.053,0.545,0.509,0.897c0.053,0.034,0.094,0.067,0.136,0.102
			c0.053-0.06,0.098-0.107,0.128-0.129c0.264-0.183,0.792-0.66,0.977-0.58c0.185,0.081,0.422-0.08,0.422-0.185
			C24.531,95.654,24.162,95.312,24.452,95.207z"/>
		<path fill="#1281C5" d="M12.082,85.686c1.39-1.31,2.127-0.044,3.393-0.695c1.27-0.654,0.491-5.438,0-6.421
			c-0.086-0.175-0.083-0.308-0.048-0.427c0.169-0.561,1.463-0.657,2.134-1.331c0.817-0.82-0.407-2.005-1.552-3.108
			c-1.034-1-2.368,0.566-3.461,0.549c-0.116,0-0.231-0.016-0.343-0.06c-1.145-0.449-2.742-0.449-2.782,0.572
			c-0.042,1.022,1.267,0.654,1.309,1.308c0.041,0.656-1.309,0.49-2.25,1.146c-0.939,0.654-1.962-0.447-2.944,0.042
			c-0.982,0.491,1.064,1.065,0.327,2.088c-0.736,1.022,0.041,0.98,1.268,1.961c1.227,0.983-0.736,1.227-0.736,2.332
			c0,1.102-1.513,1.063-1.841,1.799c-0.325,0.737,1.31,2.207,2.742,2.207C8.318,87.646,10.69,86.993,12.082,85.686z"/>
		<path fill="#1281C5" d="M29.627,54.437c0.695-0.693,1.512-3.352,0.451-3.067C29.013,51.66,29.324,54.742,29.627,54.437z"/>
		<path fill="#1281C5" d="M15.64,60.856c-0.532-0.529-2.663,2.484-1.841,2.457C14.904,63.271,16.171,61.391,15.64,60.856z"/>
		<path fill="#1281C5" d="M6.086,43.883c0.035,0.454,0,1.22,0.837,0.872c0.836-0.349,0.276,0.628,0.694,0.801
			c0.418,0.176,0.315,1.01-0.8,1.082c-1.115,0.069-1.658,0.293-1.186,0.767c0.592,0.592,1.813,0.172,2.998-0.105
			c1.184-0.279,2.894,1.149,4.288,1.708c1.394,0.559,3.798-0.21,4.077-0.943c0.279-0.731,2.159-0.452,2.926-0.975
			c0.767-0.523,1.811-1.149,3.171-1.22c1.358-0.067,1.325-1.567,1.882-1.496c0.56,0.069,1.463-1.046,1.813-1.743
			c0.349-0.695-0.383-1.952-1.219-1.952c-0.838,0-1.464-0.662-1.289-1.149c0.174-0.489-0.455-1.116-0.419-1.464
			c0.034-0.349-1.045-0.038-1.604,0.105c-0.557,0.139-1.742-1.359-2.263-1.082c-0.522,0.279-0.141,1.01-0.28,1.428
			c-0.139,0.42-1.393-0.384-1.393,0.105c0,0.488-0.523,0.557-0.941,0.034c-0.418-0.523-1.396-0.208-1.359,0.21
			c0.035,0.417-0.419,0.072-1.221-0.418c-0.801-0.487-1.638,0.559-1.568,1.082s-0.279,0.66-0.941-0.489
			c-0.663-1.149-1.429,0.103-1.08,0.735c0.349,0.624,0.209,1.391-0.313,1.076c-0.524-0.311-1.22,0.21-1.534,0.699
			c-0.314,0.487-1.429-1.43-0.627-1.882c0.802-0.452-2.545-2.372-3.59-2.372s-0.35,0.769,0.349,1.325
			c0.696,0.557-0.49,0.418-0.873-0.071c-0.383-0.485-1.114-0.103-1.534,0.593c-0.417,0.697-1.115,1.082-1.184,1.571
			c-0.07,0.487,1.184,1.01,2.266,0.557c1.08-0.454,2.299-0.523,2.858,0c0.558,0.521-1.012,0.731-0.454,1.149
			c0.559,0.418,0.104,0.769-1.219,0.662c-1.325-0.103-2.928,0.279-2.685,0.733C2.914,44.266,6.051,43.432,6.086,43.883z"/>
		<path fill="#1281C5" d="M142.298,96.439c0-0.244,0.86-0.674,0.797-1.165c-0.062-0.489-0.797-0.553-1.593-0.982
			c-0.799-0.431-1.597-0.244-2.332-0.612c-0.735-0.367-2.271-0.123-2.271-0.367c0-0.245-0.98-1.044-1.227-1.472
			c-0.245-0.43-1.043-0.187-1.533,0.119c-0.493,0.309-0.922,0.432-1.411,0.125c-0.491-0.308-0.922-0.799-1.35-0.614
			c-0.431,0.184-1.229,0.062-1.043-0.553c0.184-0.614-0.797-1.962-1.227-2.144c-0.431-0.187-1.72,0.12-2.024-0.494
			c-0.309-0.613-0.86-1.104-0.613-1.533c0.243-0.43-0.062-1.597-0.37-2.086c-0.307-0.489-1.839-0.428-2.267-0.246
			c-0.431,0.185-1.414-0.182-1.843,0.062c-0.43,0.248-0.674,0.674-1.288,0.674c-0.342,0-0.57-0.044-0.756-0.314
			c-0.148-0.213-0.274-0.562-0.411-1.155c-0.304-1.352-0.796-2.147-0.428-2.578c0.367-0.43,1.411,0.553,1.96,0.308
			c0.555-0.246,1.537-0.737,1.413-1.288c-0.122-0.553-1.042-1.288-1.531-1.41c-0.492-0.123-0.799-1.227-1.597-1.534
			c-0.798-0.307-0.613-1.289-1.288-1.717c-0.675-0.433-0.247-1.29-0.309-1.966c-0.06-0.674,0.125-1.717-0.243-1.903
			c-0.37-0.184-1.904-1.042-2.576-0.733c-0.676,0.305-1.166,0.549-1.475,0c-0.305-0.553-0.733-0.86-1.408-0.678
			c-0.678,0.184-1.106-0.121-1.475-0.43c-0.054-0.047-0.101-0.119-0.14-0.2c-0.219-0.454-0.231-1.335-0.595-1.7
			c-0.431-0.428-1.044-1.167-0.86-1.595c0.185-0.43,0.185-1.044-0.307-1.533c-0.214-0.216-0.38-0.468-0.468-0.708
			c-0.115-0.305-0.106-0.592,0.099-0.765c0.369-0.307,1.167-0.307,0.737-0.921c-0.428-0.612-0.552-0.735-0.613-1.474
			c-0.062-0.733-0.244-1.102-0.184-1.595c0.06-0.489,0.552-0.612,0.92-1.411c0.34-0.729,1.227-0.854,0.563-1.814
			c-0.125,0.103-0.304,0.2-0.604,0.283c-1.187,0.329-3.764-0.816-5.236-0.531c-1.474,0.284-4.457,0.284-5.152,1.021
			s-2.454,0.941-1.679,1.595c0.781,0.658,0,0.983,0.574,1.761c0.573,0.777,0.859,1.104,1.637,0.939
			c0.778-0.163,1.391,0.244,0.57,1.104c-0.012,0.018-0.02,0.032-0.034,0.045c-0.754,0.836-0.21,1.452-0.25,2.736
			c-0.041,1.31-1.473,1.064-2.248,1.064c-0.778,0-2.047-2.332-2.454-2.865c-0.411-0.529-1.722,0.656-2.66,1.227
			c-0.94,0.574-0.449,1.678-1.104,2.211c-0.653,0.531-1.063,1.432-0.411,2.617c0.026,0.049,0.044,0.099,0.071,0.146
			c0.558,1.141,0.354,2.296-0.273,3.004c-0.446,0.501-0.188,0.568,0.14,0.767c0.673-0.063,1.434-0.192,1.68,0.15
			c0.307,0.433,1.289,0.799,1.656,0.616c0.368-0.184,1.532,0.429,1.532,0.92c0,0.406-0.205,1.478-0.102,1.836
			c-1.918,0.354-6.821-0.156-7.19-0.305c-0.243-0.098-0.865-0.319-1.398-0.51c-0.243,0.406-0.75,0.779-1.514,0.779
			c-1.184,0-1.268-1.187-1.308-1.718c-0.038-0.531-4.784,0.449-6.054,1.718c-1.267,1.266-4.211,0.774-4.292,1.47
			c-0.061,0.505-0.503,0.767-0.79,0.626c-0.11-0.052-0.197-0.158-0.232-0.339c-0.124-0.653-0.571-0.899-1.635-0.899
			s0.654-1.063,0.244-1.595c-0.407-0.531-1.472,0.98-2.451,0.652c-0.984-0.325-2.25,1.146-3.108,1.801
			c-0.86,0.655-2.087-0.121-1.434-1.064c0.654-0.938,0-0.857-0.981-0.489c-0.982,0.368-2.167-0.081-2.045-0.982
			c0.032-0.226-0.042-0.438-0.161-0.636c-0.361-0.585-1.168-1.063-1.106-1.49c0.083-0.568,0.858-0.206,1.433,0.285
			c0.57,0.491,1.84,0.574,1.961-0.039c0.075-0.379-0.204-2.127-0.981-1.718c-0.778,0.41-0.98,0.245-1.268-0.165
			c-0.288-0.409,0.571-1.063,0.776-1.716c0.203-0.656,1.553-0.412,1.758-0.943c0.206-0.529-0.901-1.102-1.309-1.308
			c-0.41-0.202-0.573-1.513-0.083-1.919c0.49-0.41,0.696-1.965,0.287-2.374c-0.407-0.41-1.883,0-2.005,1.104
			c-0.123,1.104-1.308,0.612-1.634,0.858c-0.328,0.246,0.653,0.735,0.121,1.226c-0.53,0.492-0.735-0.735-1.594-0.814
			c-0.859-0.085-0.94,1.306-1.389,2.003c-0.453,0.695-0.167,2.167,0,3.148c0.162,0.982,1.348,1.596,1.061,2.415
			c-0.131,0.38,0.137,0.808,0.422,1.224c0.325,0.476,0.677,0.943,0.478,1.31c-0.366,0.697,0.206,1.354,0.736,2.374
			c0.532,1.022-1.143,0.449-1.185,1.104c-0.042,0.655-1.553-0.04-2.045-0.285c-0.488-0.246-2.127-0.082-2.085,0.326
			c0.016,0.163-0.009,0.389-0.081,0.581c-0.108,0.289-0.329,0.501-0.697,0.279c-0.614-0.368-1.552-0.165-2.78,0.081
			c-1.227,0.246-1.596,1.431-1.148,1.922c0.451,0.493-1.184,0.735-1.306,0.083c-0.124-0.657-1.349-0.206-1.27,0.652
			c0.083,0.859-1.35,1.187-1.267,2.25c0.083,1.064-1.309,2.045-2.21,2.576c-0.14,0.085-0.285,0.17-0.432,0.255
			c-0.591,0.339-1.22,0.664-1.846,0.791c-0.21,0.041-0.418,0.069-0.626,0.06c-0.98-0.042-1.84,0.734-1.675,2.373
			c0.162,1.635-1.188,1.797-2.865,1.92c-1.676,0.123-1.103,1.433-1.798,1.963c-0.695,0.533-3.15-0.285-3.477-1.183
			c-0.328-0.901-2.534,0-1.595,1.061c0.942,1.063,0.898,2.537,0.368,2.945s-1.678-0.653-2.414-0.124
			c-0.735,0.532-0.777-0.49-1.674-0.814c-0.9-0.329-1.27,0.406-2.699,0.285c-1.434-0.125-2.25,0.693-1.719,1.308
			c0.531,0.612-0.082,1.185,0.327,1.718c0.41,0.53,2.29,0.447,3.68,1.187c1.392,0.733,1.718,0.121,2.413,0.653
			c0.697,0.531,0.86,0.202,0.9,1.227c0.042,1.022,0.819,2.003,2.169,2.372c1.35,0.368,0.327,1.268,0.736,2.169
			c0.407,0.899-0.613,2.207-0.409,3.313c0.205,1.104-0.655,4.66-1.31,4.988c-0.041,0.022-0.108,0.022-0.162,0.032
			c-0.831,0.162-3.214-0.715-4.788-0.521c-1.675,0.204-7.034-0.247-9.119-0.083c-2.086,0.163-2.21-0.857-3.354-0.857
			c-1.146,0-0.653,1.387-2.291,1.43c-1.636,0.042-1.796,1.063-0.613,2.006c0.676,0.536,0.595,1.666,0.499,2.702
			c-0.072,0.78-0.154,1.51,0.075,1.876c0.531,0.859-0.656,5.398-1.72,6.627c-1.063,1.227-0.037,1.554,1.064,2.413
			c1.104,0.858,0.369,3.967,0.369,4.701c0,0.739,0.982,0.533,2.126,0.533c0.683,0,1.452-0.301,2.209-0.436
			c0.508-0.09,1.01-0.105,1.471,0.11c1.145,0.531,1.809,3.38,3.353,3.188c0.657-0.082,0.329-0.573,0.657-0.902
			c0.327-0.324,0.939-0.079,1.594-0.079c0.654,0,0.982-0.94,2.535-0.982c1.554-0.04,2.537-0.164,3.518-0.123
			c0.983,0.04,1.758-0.287,2.003-0.98c0.246-0.695,1.064-1.31,2.168-1.472c1.104-0.165,0.941-1.312,1.021-1.964
			c0.083-0.653,1.925-1.636,2.045-2.128c0.124-0.491-1.064-2.371,0.041-4.049c1.104-1.677,2.292-1.758,2.292-2.699
			c0-0.861,1.144-1.185,2.536-1.353c1.391-0.158,1.842-1.102,3.028-1.591c0.994-0.414,1.348-1.147,1.148-2.316
			c-0.039-0.222-0.088-0.455-0.167-0.709c-0.492-1.595,0.938-2.538,2.287-2.744c1.35-0.202,4.295,0.614,5.074,1.105
			c0.577,0.364,1.313,0.389,2.206-0.208c0.209-0.079,0.463-0.331,0.606-0.489c0.09-0.081,0.18-0.168,0.272-0.264l1.071-0.901
			c0.06-0.033,0.117-0.067,0.174-0.097l0.195-0.077h-0.01c0,0-0.01,0-0.015-0.002c0.146-0.063,0.286-0.113,0.422-0.153
			c0.482-0.141,0.909-0.162,1.334-0.386c0.859-0.446,0.491-1.225,1.92-1.635c1.433-0.408,3.315,0.776,3.886,1.635
			c0.573,0.859,0.736,0.942,0.859,1.641c0.124,0.691,0.654,2.084,2.617,3.352c1.963,1.269,2.743,2.696,3.763,3.229
			c1.022,0.533,2.045,0.41,2.659,1.146c0.613,0.736,1.432,1.145,2.413,1.597c0.98,0.451,1.021,1.512,1.962,1.637
			c0.938,0.12,0.327,0.938,0.899,1.634c0.571,0.693,0.736,2.168,0.123,2.986c-0.612,0.819-0.287,2.207,0.123,2.207
			c0.408,0,1.268-1.471,1.39-2.289c0.121-0.817,0.941-0.774,1.596-1.636c0.653-0.86-0.981-1.064-1.267-2.168
			c-0.287-1.105,1.228-2.088,2.657-1.187c1.43,0.899,2.005,1.514,2.084,0.123c0.083-1.389-4.416-3.231-5.479-3.886
			c-1.063-0.653-0.367-1.718-2.044-1.638c-1.678,0.085-3.68-2.001-4.293-4.416c-0.614-2.409-3.229-2.534-3.885-3.967
			c-0.655-1.433,0.613-1.595,0.043-2.779c-0.32-0.662,0.386-1.244,1.218-1.573c0.66-0.266,1.404-0.375,1.766-0.228
			c0.32,0.128,0.423,0.465,0.481,0.824c0.086,0.561,0.053,1.179,0.499,1.179c0.738,0,2.088-0.079,2.127,0.901
			s1.799,3.149,2.451,3.885c0.654,0.737,2.128,0.572,2.209,1.187c0.083,0.614,1.146,1.185,2.373,1.269
			c0.333,0.021,0.734,0.214,1.164,0.485c0.455,0.287,0.94,0.661,1.42,1.048c0.729,0.588,1.435,1.181,1.954,1.452
			c0.054,0.027,0.085,0.036,0.148,0.077c1.073,0.57,1.495,0.979,0.752,1.722c-0.775,0.776-0.939,3.394-0.082,4.089
			c0.817,0.662,1.053,1.976,1.843,2.353c0.039,0.02,0.077,0.047,0.12,0.061c0.899,0.286,1.594,1.352,1.473,2.372
			c-0.122,1.024,1.31,1.393,1.964,0.653c0.653-0.734,2.495,0.41,2.495,0.901c0,0.489-1.882-0.53-2.946,0.246
			c-1.063,0.776,0.818,1.512,0.575,2.332c-0.249,0.818,0.489,1.961,1.43,1.922c0.942-0.04,2.004,1.514,2.576,1.226
			c0.573-0.285-0.694-2.452-0.49-2.781c0.206-0.327,1.35,0.574,1.921-0.083c0.574-0.652-0.408-1.144-1.267-1.104
			c-0.858,0.041-0.041-1.144,0.981-0.531s1.514-0.162,2.003-0.245c0.489-0.082,0.613-1.839-0.899-2.249
			c-1.511-0.408-1.308,1.105-2.292,0.079c-0.98-1.019,0.902-0.612,0.902-1.472c0-0.858-1.514-2.084-2.251-3.106
			c-0.735-1.021,1.025-1.512,1.432-0.775c0.411,0.735,1.513,0.612,2.209,0.325c0.698-0.285-0.736-1.595,0.53-2.084
			c1.27-0.493,1.27,0.366,1.68,0.531c0.407,0.162,0.775-1.024,2.083-1.024c0.682,0,1.286,0.451,1.869,0.888
			c0.355-0.391,0.648-0.616,0.648-0.949c0-0.43,0.798-0.614,0.798-1.288c0-0.322-0.128-0.73-0.226-1.088
			c-0.106-0.376-0.18-0.688-0.02-0.752c0.305-0.123,2.086-0.367,2.819,0c0.374,0.188,0.795,0.01,1.119-0.208
			c-0.098-0.345-0.193-0.616-0.382-0.652c-0.451-0.081-1.143-1.961-0.572-2.084c0.572-0.123,1.309-2.088,2.209-2.372
			c0.357-0.112,0.511-0.328,0.574-0.594c0.093-0.404-0.025-0.934-0.003-1.452c0.042-0.858,0.532-2.168,1.391-2.249
			c0.858-0.083,1.555-0.083,1.433-1.512c-0.003-0.05-0.003-0.087-0.007-0.133c-0.093-1.279,0.172-1.206,1.314-2.074
			c1.187-0.899,1.309-2.577,2.371-2.783c1.065-0.204,1.514-0.695,3.069-0.452c1.554,0.248-0.776,1.229,0.283,1.799
			c0.7,0.379,2.348,0.192,3.445,0.25c1.4-0.237,2.862-0.21,4.306,0.06c0.717-0.646,2.101-1.529,3.007-1.615
			c1.27-0.122,2.29-0.493,3.518-1.062c0.495-0.231,1.363-0.466,2.251-0.634c-0.135-0.579-0.306-1.258,0.062-1.312
			c0.428-0.06,1.718-1.475,2.147-1.475s2.269,0.369,2.269,0.063c0-0.307,0.614-1.349,0.489-1.656
			c-0.121-0.307-0.735-0.734-0.612-1.042c0.123-0.307,0.982-0.307,0.982-0.676C142.974,96.871,142.298,96.685,142.298,96.439z
			 M97.638,78.343c0.016-0.045,0.021-0.089,0.024-0.133C97.66,78.254,97.653,78.298,97.638,78.343z M97.657,78.113
			c-0.001-0.006-0.002-0.014-0.003-0.02c0,0,0.002,0.002,0.002,0.004C97.657,78.104,97.656,78.107,97.657,78.113z M96.629,77.176
			c0.003,0.002,0.005,0.002,0.008,0.002C96.634,77.178,96.632,77.178,96.629,77.176z M95.904,76.9
			c0.016,0.004,0.029,0.009,0.044,0.015C95.934,76.909,95.919,76.904,95.904,76.9z M96.247,77.018
			c0.014,0.004,0.025,0.008,0.038,0.014C96.273,77.025,96.26,77.021,96.247,77.018z M95.668,76.84
			c-0.009-0.002-0.015-0.005-0.022-0.007C95.653,76.835,95.659,76.838,95.668,76.84z M95.424,76.76
			c0.019,0.026,0.036,0.05,0.065,0.05C95.461,76.81,95.44,76.79,95.424,76.76z"/>
		<path fill="#1281C5" d="M58.99,122.902c1.187-0.165,1.023-5.114,0.574-5.153c-0.451-0.042-0.574,0.774-1.717,1.474
			C56.702,119.916,57.855,123.057,58.99,122.902z"/>
		<path fill="#1281C5" d="M22.919,63.844c-0.818,0.408-1.637-0.612-0.942-0.899c0.696-0.285,2.168-1.718,2.087-2.29
			c-0.081-0.573,1.023-1.104,0.409-1.637c-0.613-0.529-0.696,0.697-1.227,1.105c-0.532,0.408-1.719,0.288-2.986,0.04
			c-1.268-0.246-1.758,1.553-1.718,2.332c0.042,0.779-1.472,1.227-1.229,1.882c0.246,0.654-0.284,1.143-0.692,0.774
			c-0.41-0.367-0.859-1.268-1.678-0.612c-0.819,0.656,0.941,1.514,2.003,1.639c1.064,0.121-0.816,0.899-1.022,2.041
			c-0.203,1.147,1.39,0.658,1.473,1.474c0.083,0.818-2.291,0.941-2.291,1.716c0,0.781,1.35-0.367,1.963-0.692
			c0.613-0.329-0.326,1.921,1.147,1.677c1.471-0.248,1.061-2.25,1.593-2.17c0.533,0.082-0.244,1.064,0.206,1.922
			c0.447,0.86-1.065,2.17-0.983,2.784c0.081,0.612,3.027,0.612,3.966-0.369c0.942-0.982,1.39,0.084,0.737,0.818
			c-0.653,0.735-0.368,1.431,0.451,1.72c0.817,0.283,1.105,0.367,0.737,1.019c-0.368,0.656-0.043,1.882-0.248,2.494
			c-0.204,0.614-2.739,0.533-2.821,0.125c-0.083-0.41-1.146-0.125-0.857,0.448c0.283,0.574-0.902,1.187-0.82,1.72
			c0.083,0.534,1.595,0.407,1.636,1.063c0.041,0.653-1.104,1.431-2.657,1.88c-1.557,0.45,0.326,1.679,1.062,1.146
			c0.735-0.531,0.574,0.366,1.637,0.366s1.72,0.86,2.902,0.41c1.188-0.449,1.147,0,0.247,0.695c-0.9,0.697-2.25-0.039-3.067,0.41
			c-0.819,0.448-4.146,3.568-3.517,4.335c0.368,0.45,0.857-0.653,2.042-1.146c1.188-0.491,1.391,0.327,2.047,0.408
			c0.654,0.084,0.694-1.349,1.226-1.226c0.532,0.122,1.021-0.45,2.003-0.286c0.981,0.163,1.678-0.206,2.168-0.614
			c0.492-0.407,1.799,0.816,2.209,0.531c0.407-0.287,2.207-0.614,3.108-0.574c0.896,0.043,3.23-1.021,3.842-1.593
			c0.614-0.573-0.367-0.693-1.185-0.573c-0.819,0.125-0.656-0.817,0.204-1.636c0.859-0.816,2.209-1.431,2.29-2.659
			c0.083-1.227-2.617-2.084-2.904-1.433c-0.286,0.656-0.898,0.577-1.351-0.16c-0.449-0.737,0.412-1.433-0.038-1.514
			c-0.453-0.081-1.023-1.105-0.899-1.514c0.123-0.406-0.697-3.025-2.087-3.353c-1.39-0.328-1.594-2.292-1.838-3.354
			c-0.247-1.065-1.148-0.495-1.842-1.392c-0.696-0.901-1.882-0.45-2.496-0.408c-0.612,0.04,0-1.147,0.981-1.801
			c0.982-0.654,2.128-4.131,2.128-4.824C28.031,63.394,23.737,63.434,22.919,63.844z"/>
		<path fill="#1281C5" d="M68.481,70.592c-0.329-0.204-0.574,0.572-0.943,0.656c-0.368,0.081-0.775-1.555-0.94-0.656
			c-0.165,0.901-0.982-0.367-1.799,0.776c-0.819,1.148,0.489,2.169,1.063,2.539c0.572,0.368-0.042,0.897-0.777,0.735
			c-0.735-0.163-0.285,1.062,0.736,1.226c1.021,0.165,2.127-1.799,2.005-2.29C67.701,73.089,68.868,70.833,68.481,70.592z"/>
		<path fill="#1281C5" d="M83.037,66.667c0.329,0.408,3.436-3.642,1.882-3.6C83.366,63.111,82.638,66.166,83.037,66.667z"/>
		<path fill="#1281C5" d="M95.919,58.649c0.329-0.612-2.362-0.345-1.758,0.206C94.612,59.265,95.594,59.263,95.919,58.649z"/>
		<path fill="#1281C5" d="M93.59,62.251c0.735-0.043,2.412-1.435,2.863-1.884c0.448-0.45-0.288-0.939-1.761-0.531
			C93.222,60.246,93.003,62.283,93.59,62.251z"/>
		<path fill="#1281C5" d="M48.398,48.097c-0.04,0.329-1.064,0.86-0.327,1.026c0.736,0.161,0.205,0.816-0.285,1.021
			c-0.492,0.208-0.492,0.697,0,1.31c0.49,0.614-0.86,0.735-0.206,1.676c0.656,0.941,1.144-0.248,1.432,0.45
			c0.287,0.696,1.063,0.083,1.963-0.735c0.9-0.818,1.227,0.899,0.491,0.858c-0.736-0.04-1.595,0.406-1.433,1.145
			c0.165,0.735-1.144,0.612-1.104-0.287c0.04-0.897-1.513,0.162-0.941,0.82c0.573,0.651-0.203,1.02-0.203,1.634
			s1.104,0.489,1.553-0.206c0.448-0.693,1.186-0.531,1.472,0.167c0.286,0.693-0.695,0.163-0.695,1.102
			c0,0.941-0.612,0.123-1.146,0.86c-0.531,0.737,2.086,2.086,2.906,2.29c0.817,0.206,1.594,1.104,3.229,0.86
			c1.639-0.246,4.744-3.271,5.153-3.804c0.411-0.533,1.31,0.081,1.923-0.41c0.614-0.489,0.246-1.757,0.696-2.001
			c0.45-0.25,0.693,1.347,1.104,1.512c0.371,0.146,0.638,0.436,0.656,1.254c0.001,0.081,0.002,0.163,0,0.26
			c-0.041,1.02,0.327,2.044,1.226,2.779c0.9,0.737,0.204,1.839,0.98,2.863c0.777,1.024,0.531,1.759,1.391,2.497
			c0.859,0.735,0.941,1.145,0.573,2.086c-0.367,0.941,0.737,0.693,0.777,1.266c0.044,0.575-0.243,1.758,0.044,2.333
			c0.283,0.572,0.858,0,2.165-0.04c1.309-0.041,0.982-0.861,1.022-1.639c0.04-0.777,0.697-0.408,0.858-0.897
			c0.164-0.491,1.351-0.614,2.291-0.208c0.939,0.412,1.43-0.283,1.595-1.266c0.162-0.98,0.693,0.206,0.982,0.408
			c0.285,0.206,1.145-1.512,1.551-2.615c0.41-1.105-0.039-0.899-0.979,0.163c-0.94,1.064-0.407-1.062-0.04-1.922
			c0.366-0.86,0.327-3.356,0.45-3.927c0.124-0.572,0.368-1.43,1.554-1.676c1.187-0.246,2.739-1.718,2.496-2.33
			c-0.246-0.616,1.634-1.637,1.634-2.25c0-0.614-1.962-2.497-2.616-2.905c-0.655-0.408-2.085-0.081-1.963-0.531
			s-0.166-2.209-0.328-3.108c-0.164-0.901,1.021-1.841,1.021-2.701c0-0.857-0.04-1.84,0.737-2.125
			c0.776-0.285,0.288-1.021,1.311-1.268c1.02-0.244,0.816-1.716,1.921-2.167c1.104-0.45,1.185-0.82,2.617-1.512
			c1.432-0.697,3.844-2.332,4.255-3.191c0.407-0.858-1.474-1.759-0.287-2.659c1.186-0.9,0.204-1.924,1.062-2.249
			c0.859-0.329,1.188-0.776,1.803-1.43c0.61-0.656,1.429-0.04,2.9-0.287c0.539-0.089,1.033-0.046,1.498,0.067
			c0.808,0.194,1.524,0.603,2.227,0.916c1.104,0.491,0.938,1.266,0.981,2.126c0.039,0.858,0.079,1.347-0.49,0.98
			c-0.573-0.367-1.188,0-1.516,1.229c-0.328,1.226-1.881,2.698-2.821,2.779c-0.943,0.083-0.859,1.064-1.637,1.268
			c-0.774,0.204-1.512,0.656-1.471,1.514c0.039,0.858-1.146,0.941-1.923,0.941s-0.613,1.389-1.229,1.755
			c-0.612,0.371-0.491,0.862,0.082,1.597c0.573,0.737,0.082,1.393,0.285,1.923c0.206,0.531,1.106,1.757,0.493,3.107
			c-0.613,1.351-1.268,3.027-0.737,2.865c0.531-0.163,1.759,1.105,2.577,1.022c0.818-0.083,0.901,1.143,1.677,0.899
			c0.776-0.246,0.776,0.733,3.027,0.656c2.25-0.083,6.788-1.963,8.589-1.963c1.021,0,1.836-0.123,2.479-0.281
			c0.387-0.583,0.854-1.212,1.323-1.682c1.146-1.147,3.599-1.963,4.254-3.436c0.654-1.472,3.596-2.609,4.09-3.925
			c0.244-0.658,0.327-0.985-0.735-2.211c-1.064-1.229-3.435-2.044-3.518-2.698c-0.084-0.656,1.8-0.737,1.716-1.556
			c-0.082-0.818-1.061-0.816-1.474-1.47c-0.407-0.656,0.493-1.066,0.411-1.391c-0.082-0.327-1.309-0.491-1.391-0.901
			c-0.082-0.408,0.82-0.327,0.653-0.816c-0.163-0.492-0.979-1.393-0.408-2.128c0.575-0.735,1.803,0,0.898-1.637
			c-0.898-1.634-2.289-3.681-2.616-4.172c-0.327-0.491,0.327-1.31,0.819-1.632c0.49-0.329,1.717-1.555,1.717-2.046
			c0-0.492-1.554-1.801-1.962-2.045c-0.411-0.248-1.31-0.164-1.718-0.984c-0.411-0.814-0.818-1.06-0.411-1.553
			c0.411-0.489,0.411-0.979,0.411-1.472c0-0.489,0.899-0.083,1.06-0.818c0.075-0.334,0.313-0.701,0.613-1.006
			c0.363-0.358,0.826-0.63,1.272-0.63c0.814,0,1.551-1.225,2.289-1.062c0.612,0.135,1.217,0.034,1.405-0.991
			c-0.658-0.412-1.91-0.465-2.06,0.091c-0.164,0.614-1.267,0.491-1.227-0.123c0.039-0.612-1.718-1.104-1.802-1.393
			c-0.082-0.283,0.736-0.244,1.394,0.123c0.65,0.37,1.104,0.125,1.837-0.571c0.739-0.695,1.76-0.123,1.884-0.735
			c0.122-0.612-1.188-1.024-1.432-1.393c-0.247-0.366-1.186-0.858-2.085-0.693c-0.899,0.163-0.94-0.204-1.476-0.695
			c-0.53-0.491-2.163,0.327-2.163,1.472c0,1.145-1.026,0.858-0.658,0.246c0.371-0.614-0.489-1.351,0.329-1.555
			c0.818-0.202,0.367-1.431-1.146-1.553c-1.515-0.123-2.085,1.145-1.718,1.553c0.369,0.41-1.022,2.167-1.637,2.167
			c-0.612,0,0.083-1.512,0.043-2.33c-0.043-0.818-0.614-0.367-1.76,0.939c-1.144,1.308-2.003,2.495-2.657,2.619
			c-0.654,0.123-0.574-1.187,0.49-1.759c1.063-0.572,1.105-2.128,1.798-2.128c0.696,0,0.696-0.816-0.325-1.062
			c-1.023-0.246-1.188,0.899-1.514,1.226c-0.329,0.327-2.003-0.572-1.964-0.246c0.042,0.329-0.897,0.45-0.49,1.064
			c0.407,0.612-0.203,1.145-0.613,0.41c-0.41-0.737-1.431-0.167-1.921,0.654c-0.493,0.818-1.147,0.776-0.656,1.064
			c0.491,0.285,0.451,1.389-0.285,1.595c-0.737,0.204-0.451-2.005-1.022-1.801c-0.572,0.206-0.205-1.064,0.571-1.064
			c0.777,0,1.554-1.145,1.472-1.431c-0.136-0.478-0.98-0.368-0.98,0.246c0,0.612-1.227,0.492-2.248,0.448
			c-1.021-0.038-0.982,1.189,0.163,1.841c1.144,0.658-0.204,1.066-0.778,0.575c-0.571-0.492-1.47-0.246-2.085,0.04
			c-0.613,0.287,1.474,1.024,1.555,1.393c0.08,0.367-1.064-0.452-1.31-0.165c-0.245,0.288-1.39-0.204-1.472-0.899
			c-0.084-0.697-1.924,0.285-0.898,0.529c1.022,0.248,0.652,0.901,0.652,1.803c0,0.897-1.187,0.204-0.939-0.575
			c0.243-0.774-0.738-0.614-1.554-0.123c-0.819,0.491,0.123-0.899-0.206-1.595c-0.327-0.693-1.064,0-1.923,0.165
			c-0.858,0.163-1.307,0.202-0.775,0.779c0.531,0.57,0.449,1.387-0.248,1.266c-0.694-0.123-0.979,0-0.899,0.656
			c0.083,0.654-0.898,0.694-0.98,0.123c-0.081-0.573-1.472-0.412-1.881,0.246c-0.409,0.652-1.555,1.145-1.432,1.88
			c0.121,0.735,1.022-0.369,1.761-0.125c0.734,0.246-0.043,0.614,0.367,0.983c0.408,0.368,0.326,1.27-0.247,0.737
			c-0.571-0.531-1.31-0.697-1.431,0.163c-0.123,0.86-0.736-0.123-1.229-0.737c-0.489-0.614-0.979,1.147-1.511,0.737
			c-0.531-0.408,1.063-1.676,0.652-2.291c-0.407-0.612-0.695,0.369-1.634,1.31c-0.941,0.939-2.207,0.901-1.758,1.351
			c0.45,0.448-0.942,0.696-1.186,1.47c-0.247,0.779-2.168,1.066-3.397,1.884c-1.228,0.814,0.246,0.856,0.941,0.079
			c0.697-0.777,0.942-0.327,2.045-1.022c1.104-0.695,2.289-1.268,2.699-0.982c0.407,0.287,1.104,0.493,1.636-0.244
			c0.531-0.737,1.187-0.575,1.717-0.123c0.532,0.45-0.898,0.818-0.246,1.474c0.654,0.654-0.775,1.019-0.775,0.448
			c0-0.573-0.817-1.062-1.105-0.533c-0.287,0.533-0.775,1.104-1.308,1.147c-0.53,0.042-1.104,1.022-1.104,2.005
			c0,0.979-0.942,0-1.021,0.858c-0.082,0.86-1.393,2.37-2.538,3.475c-1.144,1.104-0.082,1.349-0.451,2.046
			c-0.368,0.693-1.719,0.081-2.165,0.367c-0.452,0.289,0.244,2.005-0.369,2.538c-0.614,0.529,0,1.266,0,1.88
			c0,0.612-1.596-0.369-1.717,0.244c-0.123,0.614-1.516,0.454-1.925,0.614c-0.409,0.164,0.819,1.145,1.557,1.718
			c0.735,0.574-0.697,1.022-0.861,0.368c-0.163-0.654-1.187,0.41-2.453,0.981c-1.269,0.574-0.737,1.717-1.716,1.759
			c-0.983,0.042-0.698,1.595-1.352,2.084c-0.656,0.493-0.49-1.143-1.515-1.185c-1.02-0.04-0.94,0.695-0.327,1.555
			c0.613,0.856-0.94,0.204-1.514,0.941c-0.571,0.735-2.209,0.367-2.658,0.981c-0.449,0.614,1.227,0.614,1.471,1.104
			c0.246,0.493-1.471,0.246-2.372,0.042c-0.898-0.202-0.652,1.145-1.473,0.98c-0.817-0.162-1.838,0.696-1.264,1.27
			c0.572,0.573-0.453,0.654-1.025,0.285c-0.572-0.366-1.062,0.531-1.268,1.227C47.129,47.404,48.438,47.774,48.398,48.097z"/>
	</g>
</g>
</svg>
