<?xml version="1.0" encoding="utf-8"?>
<!-- Generator: Adobe Illustrator 16.0.0, SVG Export Plug-In . SVG Version: 6.00 Build 0)  -->
<!DOCTYPE svg PUBLIC "-//W3C//DTD SVG 1.1//EN" "http://www.w3.org/Graphics/SVG/1.1/DTD/svg11.dtd">
<svg version="1.1" id="Layer_1" xmlns="http://www.w3.org/2000/svg" xmlns:xlink="http://www.w3.org/1999/xlink" x="0px" y="0px"
	 width="600px" height="84px" viewBox="0 0 600 84" enable-background="new 0 0 600 84" xml:space="preserve">
<g>
	<path fill="#231F20" d="M586.628,17.909c0,1.695-0.423,3.273-1.271,4.738s-2.006,2.619-3.469,3.462
		c-1.464,0.843-3.046,1.266-4.74,1.266c-1.688,0-3.265-0.423-4.729-1.266c-1.463-0.843-2.62-1.997-3.469-3.462
		c-0.846-1.465-1.271-3.043-1.271-4.738c0-1.688,0.426-3.265,1.271-4.734c0.849-1.469,2.006-2.626,3.469-3.469
		c1.464-0.843,3.04-1.265,4.729-1.265c1.694,0,3.276,0.422,4.74,1.265c1.463,0.843,2.62,2,3.469,3.469
		C586.205,14.645,586.628,16.221,586.628,17.909 M584.796,17.909c0-2.11-0.754-3.912-2.247-5.406
		c-1.492-1.491-3.295-2.237-5.401-2.237c-2.108,0-3.91,0.746-5.401,2.237c-1.493,1.494-2.244,3.296-2.244,5.406
		c0,2.106,0.751,3.91,2.244,5.401c1.491,1.493,3.293,2.241,5.401,2.241c2.106,0,3.909-0.748,5.401-2.241
		C584.042,21.819,584.796,20.016,584.796,17.909 M572.854,12.847h4.526c1.288,0,2.215,0.258,2.787,0.772
		c0.581,0.521,0.865,1.212,0.865,2.081c0,0.677-0.222,1.267-0.655,1.762c-0.443,0.495-1.135,0.857-2.08,1.08
		c0.396,0.149,0.676,0.304,0.86,0.472c0.252,0.23,0.526,0.572,0.808,1.029c0.018,0.033,0.56,1.009,1.634,2.929h-2.977
		c-0.968-1.929-1.613-3.079-1.947-3.458c-0.334-0.375-0.662-0.563-0.991-0.563c-0.071,0-0.18,0.013-0.311,0.037v3.984h-2.52V12.847z
		 M575.374,17.14h1.086c0.73,0,1.242-0.119,1.542-0.355c0.296-0.235,0.447-0.538,0.447-0.91c0-0.374-0.139-0.679-0.425-0.913
		c-0.287-0.237-0.776-0.354-1.455-0.354h-1.195V17.14z"/>
	<path fill="#010101" d="M54.576,40.188l-11.552,2.086c-0.391-2.31-1.271-4.046-2.649-5.214c-1.375-1.167-3.164-1.751-5.359-1.751
		c-2.919,0-5.247,1.008-6.985,3.024c-1.736,2.015-2.607,5.384-2.607,10.111c0,5.255,0.883,8.966,2.651,11.135
		c1.765,2.169,4.133,3.253,7.109,3.253c2.225,0,4.044-0.633,5.462-1.896c1.419-1.266,2.419-3.442,3.003-6.528l11.51,1.96
		c-1.195,5.283-3.488,9.273-6.88,11.969c-3.391,2.696-7.938,4.046-13.637,4.046c-6.479,0-11.641-2.044-15.49-6.13
		c-3.852-4.087-5.777-9.743-5.777-16.974c0-7.313,1.932-13.004,5.797-17.078c3.863-4.071,9.091-6.107,15.679-6.107
		c5.395,0,9.682,1.162,12.866,3.481C50.899,31.896,53.185,35.434,54.576,40.188"/>
	<path fill="#010101" d="M72.228,40.605l-10.634-1.919c1.194-4.281,3.253-7.451,6.173-9.508c2.918-2.06,7.254-3.086,13.01-3.086
		c5.226,0,9.118,0.619,11.675,1.856c2.56,1.235,4.36,2.808,5.402,4.711c1.041,1.904,1.563,5.399,1.563,10.487l-0.125,13.679
		c0,3.894,0.188,6.764,0.563,8.61c0.377,1.852,1.079,3.831,2.106,5.942H90.369c-0.308-0.776-0.682-1.931-1.128-3.46
		c-0.194-0.693-0.332-1.153-0.417-1.375c-2,1.944-4.142,3.404-6.421,4.378c-2.279,0.974-4.713,1.46-7.297,1.46
		c-4.561,0-8.153-1.235-10.781-3.712c-2.627-2.476-3.94-5.602-3.94-9.383c0-2.503,0.598-4.733,1.792-6.693
		c1.195-1.96,2.872-3.462,5.025-4.503c2.154-1.043,5.262-1.954,9.321-2.732c5.479-1.027,9.273-1.986,11.385-2.878v-1.168
		c0-2.251-0.555-3.857-1.668-4.816c-1.11-0.959-3.21-1.437-6.296-1.437c-2.085,0-3.711,0.408-4.88,1.229
		C73.895,37.107,72.951,38.547,72.228,40.605 M87.907,50.113c-1.501,0.5-3.877,1.099-7.13,1.793
		c-3.253,0.693-5.379,1.375-6.38,2.042c-1.527,1.085-2.294,2.463-2.294,4.131c0,1.64,0.611,3.058,1.835,4.253
		c1.224,1.193,2.779,1.792,4.67,1.792c2.111,0,4.13-0.693,6.046-2.084c1.418-1.058,2.351-2.351,2.794-3.879
		c0.308-1,0.458-2.904,0.458-5.713V50.113z"/>
	<path fill="#010101" d="M126.115,71.381h-11.718V27.094h10.886v6.298c1.861-2.978,3.537-4.938,5.025-5.881
		c1.484-0.945,3.174-1.418,5.065-1.418c2.669,0,5.241,0.736,7.714,2.21L139.46,38.52c-1.973-1.277-3.809-1.918-5.504-1.918
		c-1.643,0-3.03,0.451-4.171,1.354s-2.038,2.537-2.691,4.899c-0.653,2.363-0.979,7.313-0.979,14.847V71.381z"/>
	<path fill="#1281C5" d="M175.222,57.285l11.677,1.96c-1.5,4.281-3.875,7.542-7.115,9.78c-3.236,2.236-7.289,3.356-12.153,3.356
		c-7.7,0-13.404-2.517-17.1-7.549c-2.918-4.028-4.377-9.118-4.377-15.263c0-7.339,1.918-13.089,5.755-17.243
		c3.837-4.155,8.687-6.234,14.555-6.234c6.589,0,11.786,2.174,15.597,6.526c3.807,4.352,5.631,11.017,5.464,19.996h-29.357
		c0.082,3.477,1.025,6.179,2.834,8.11c1.806,1.934,4.057,2.899,6.755,2.899c1.835,0,3.378-0.501,4.63-1.502
		C173.637,61.122,174.58,59.512,175.222,57.285 M175.889,45.441c-0.083-3.391-0.959-5.968-2.628-7.734
		c-1.669-1.768-3.697-2.649-6.087-2.649c-2.562,0-4.671,0.933-6.34,2.796c-1.668,1.861-2.491,4.393-2.46,7.588H175.889z"/>
	<path fill="#8BBD41" d="M210.592,61.946c1.251,0.999,2.796,1.5,4.628,1.5c2.695,0,4.948-0.964,6.758-2.898
		c1.811-1.931,2.751-4.635,2.834-8.111h-29.359c-0.166-8.979,1.654-15.645,5.465-19.996c3.812-4.351,9.006-6.525,15.596-6.525
		c5.865,0,10.717,2.079,14.555,6.233c3.837,4.156,5.755,9.906,5.755,17.245c0,6.146-1.459,11.233-4.381,15.263
		c-3.694,5.031-9.398,7.549-17.097,7.549c-4.861,0-8.917-1.121-12.156-3.358c-3.24-2.236-5.609-5.498-7.11-9.778l11.677-1.96
		C208.4,59.335,209.343,60.945,210.592,61.946 M224.606,45.265c0.024-3.197-0.792-5.727-2.462-7.591
		c-1.665-1.86-3.776-2.793-6.336-2.793c-2.396,0-4.422,0.882-6.089,2.647c-1.668,1.768-2.545,4.344-2.627,7.736H224.606z"/>
	<path fill="#010101" d="M259.375,71.114h-11.717V26.826h10.884v6.298c1.859-2.976,3.536-4.937,5.025-5.881
		c1.488-0.945,3.174-1.417,5.066-1.417c2.669,0,5.238,0.733,7.714,2.209l-3.627,10.217c-1.978-1.278-3.813-1.917-5.505-1.917
		c-1.642,0-3.027,0.452-4.17,1.354c-1.142,0.903-2.034,2.537-2.689,4.9c-0.654,2.361-0.981,7.312-0.981,14.847V71.114z"/>
	<path fill="#010101" d="M300.22,27.123h10.332v5.783c3.696-4.494,8.096-6.74,13.202-6.74c2.71,0,5.064,0.558,7.059,1.677
		c1.995,1.116,3.63,2.803,4.907,5.063c1.861-2.261,3.869-3.947,6.021-5.063c2.154-1.119,4.455-1.677,6.901-1.677
		c3.111,0,5.743,0.633,7.898,1.893c2.153,1.269,3.761,3.121,4.825,5.567c0.771,1.808,1.156,4.732,1.156,8.775v27.081h-11.206V45.271
		c0-4.2-0.386-6.913-1.159-8.137c-1.035-1.595-2.63-2.394-4.786-2.394c-1.567,0-3.043,0.479-4.427,1.438
		c-1.382,0.956-2.379,2.356-2.99,4.209c-0.612,1.844-0.917,4.765-0.917,8.753v20.342h-11.21V46.269c0-4.12-0.199-6.779-0.597-7.977
		c-0.399-1.196-1.018-2.088-1.856-2.673c-0.836-0.584-1.973-0.878-3.41-0.878c-1.729,0-3.283,0.467-4.665,1.396
		c-1.384,0.931-2.375,2.274-2.973,4.03c-0.597,1.753-0.896,4.665-0.896,8.734v20.58H300.22V27.123z"/>
	<path fill="#010101" d="M367.179,47.705c0-3.724,0.918-7.327,2.753-10.809c1.835-3.483,4.433-6.143,7.798-7.979
		c3.362-1.833,7.118-2.751,11.267-2.751c6.408,0,11.66,2.078,15.755,6.245c4.096,4.157,6.143,9.417,6.143,15.772
		c0,6.407-2.068,11.721-6.203,15.932c-4.133,4.219-9.339,6.325-15.614,6.325c-3.883,0-7.586-0.879-11.108-2.632
		c-3.523-1.757-6.201-4.332-8.036-7.717C368.097,56.698,367.179,52.57,367.179,47.705 M378.665,48.302
		c0,4.203,0.997,7.422,2.992,9.653c1.994,2.233,4.454,3.352,7.379,3.352s5.379-1.118,7.359-3.352
		c1.98-2.231,2.973-5.477,2.973-9.732c0-4.147-0.992-7.339-2.973-9.572s-4.435-3.35-7.359-3.35s-5.385,1.116-7.379,3.35
		C379.662,40.884,378.665,44.102,378.665,48.302"/>
	<path fill="#010101" d="M415.067,57.397l11.248-1.716c0.479,2.182,1.448,3.834,2.912,4.969c1.461,1.125,3.509,1.692,6.141,1.692
		c2.899,0,5.079-0.53,6.543-1.595c0.983-0.745,1.476-1.741,1.476-2.991c0-0.852-0.267-1.555-0.799-2.114
		c-0.558-0.532-1.809-1.023-3.749-1.476c-9.042-1.995-14.771-3.816-17.19-5.464c-3.352-2.288-5.026-5.466-5.026-9.533
		c0-3.67,1.448-6.755,4.348-9.255c2.897-2.5,7.392-3.749,13.481-3.749c5.797,0,10.104,0.943,12.924,2.831
		c2.818,1.889,4.76,4.682,5.822,8.378l-10.568,1.954c-0.452-1.647-1.309-2.912-2.573-3.789c-1.265-0.878-3.064-1.316-5.404-1.316
		c-2.953,0-5.065,0.411-6.342,1.235c-0.851,0.586-1.276,1.344-1.276,2.275c0,0.797,0.371,1.476,1.115,2.033
		c1.013,0.744,4.501,1.795,10.471,3.15c5.971,1.355,10.139,3.019,12.505,4.987c2.34,1.993,3.511,4.771,3.511,8.336
		c0,3.883-1.623,7.22-4.867,10.011c-3.244,2.793-8.044,4.189-14.399,4.189c-5.77,0-10.337-1.171-13.701-3.512
		C418.303,64.59,416.103,61.413,415.067,57.397"/>
	<path fill="#010101" d="M473.803,40.047l-10.171-1.835c1.142-4.096,3.109-7.126,5.902-9.094s6.94-2.951,12.443-2.951
		c5,0,8.724,0.589,11.169,1.776c2.447,1.18,4.17,2.687,5.163,4.503c1.002,1.826,1.498,5.167,1.498,10.034l-0.119,13.083
		c0,3.724,0.181,6.469,0.536,8.233c0.364,1.773,1.033,3.665,2.017,5.687h-11.089c-0.293-0.746-0.649-1.85-1.075-3.311
		c-0.188-0.664-0.319-1.103-0.399-1.317c-1.915,1.861-3.964,3.258-6.143,4.188c-2.182,0.932-4.509,1.396-6.981,1.396
		c-4.36,0-7.796-1.184-10.312-3.548c-2.51-2.367-3.77-5.36-3.77-8.978c0-2.392,0.574-4.523,1.717-6.402
		c1.143-1.871,2.744-3.307,4.809-4.31c2.058-0.992,5.029-1.865,8.912-2.608c5.237-0.985,8.869-1.901,10.89-2.753v-1.117
		c0-2.153-0.532-3.688-1.597-4.608c-1.063-0.913-3.071-1.375-6.022-1.375c-1.995,0-3.55,0.392-4.666,1.18
		C475.398,36.702,474.493,38.08,473.803,40.047 M488.8,49.141c-1.436,0.479-3.71,1.05-6.822,1.716
		c-3.109,0.664-5.146,1.314-6.103,1.954c-1.46,1.037-2.193,2.354-2.193,3.948c0,1.569,0.586,2.925,1.756,4.07
		c1.17,1.142,2.659,1.713,4.467,1.713c2.021,0,3.949-0.663,5.783-1.994c1.356-1.011,2.247-2.246,2.672-3.709
		c0.294-0.957,0.44-2.778,0.44-5.465V49.141z"/>
	<path fill="#010101" d="M511.837,11.01h11.209v10.371h-11.209V11.01z M511.837,27.122h11.209V69.48h-11.209V27.122z"/>
	<path fill="#010101" d="M574.081,39.648l-11.05,1.993c-0.371-2.207-1.212-3.868-2.533-4.984c-1.313-1.117-3.022-1.676-5.122-1.676
		c-2.794,0-5.019,0.966-6.685,2.89c-1.656,1.932-2.491,5.154-2.491,9.673c0,5.026,0.843,8.577,2.534,10.651
		c1.686,2.074,3.955,3.111,6.8,3.111c2.126,0,3.869-0.603,5.226-1.816c1.355-1.207,2.313-3.289,2.872-6.242l11.008,1.877
		c-1.146,5.051-3.337,8.866-6.581,11.445c-3.245,2.581-7.591,3.871-13.042,3.871c-6.195,0-11.139-1.954-14.817-5.865
		c-3.687-3.908-5.525-9.319-5.525-16.233c0-6.993,1.848-12.44,5.544-16.331c3.696-3.898,8.695-5.846,14.997-5.846
		c5.159,0,9.262,1.113,12.303,3.328C570.566,31.72,572.752,35.1,574.081,39.648"/>
</g>
</svg>
